<svg xmlns="http://www.w3.org/2000/svg" viewBox="0 0 469.4 469.4"><style>  path{fill:#cdd8dd}</style><path d="M231.1 160.4l67.2 67.2 0.3-3.5c0-35.3-28.7-64-64-64L231.1 160.4z"/><path d="M234.7 117.4c58.9 0 106.7 47.8 106.7 106.7 0 13.8-2.8 26.9-7.6 38.9l62.4 62.4c32.2-26.9 57.6-61.7 73.3-101.3 -37-93.7-128-160-234.8-160 -29.9 0-58.5 5.3-85 14.9l46.1 46C207.8 120.3 220.9 117.4 234.7 117.4z"/><path d="M21.3 59.3l48.6 48.6 9.7 9.7C44.5 145.1 16.6 181.7 0 224.1c36.9 93.7 128 160 234.7 160 33.1 0 64.6-6.4 93.5-18l9.1 9.1 62.2 62.3 27.2-27.1L48.5 32.1 21.3 59.3zM139.3 177.1l33 33c-1 4.6-1.6 9.2-1.6 14 0 35.3 28.7 64 64 64 4.8 0 9.4-0.6 13.9-1.6l33 33c-14.2 7-30 11.3-46.8 11.3C175.8 330.7 128 282.9 128 224.1 128 207.2 132.3 191.4 139.3 177.1z"/></svg>